HIERARCHY
ROOT Hips
{
    OFFSET 0.000000 0.000000 0.000000
    CHANNELS 6 Xposition Yposition Zposition Zrotation Xrotation Yrotation
    JOINT Spine
    {
        OFFSET -0.000000 7.814340 0.000000
        CHANNELS 3 Zrotation Xrotation Yrotation
        JOINT Spine1
        {
            OFFSET -0.000000 23.378139 0.000000
            CHANNELS 3 Zrotation Xrotation Yrotation
            JOINT Neck
            {
                OFFSET -0.000000 23.282129 2.116557
                CHANNELS 3 Zrotation Xrotation Yrotation
                JOINT Head
                {
                    OFFSET -0.000000 13.341557 -1.905937
                    CHANNELS 3 Zrotation Xrotation Yrotation
                    End Site
                    {
                        OFFSET -0.000000 23.824207 0.000000
                    }
                }
            }
            JOINT LeftShoulder
            {
                OFFSET 3.824717 21.491646 -0.175476
                CHANNELS 3 Zrotation Xrotation Yrotation
                JOINT LeftArm
                {
                    OFFSET 10.823906 0.000000 0.000000
                    CHANNELS 3 Zrotation Xrotation Yrotation
                    JOINT LeftForeArm
                    {
                        OFFSET 28.535641 0.000000 0.000000
                        CHANNELS 3 Zrotation Xrotation Yrotation
                        JOINT LeftHand
                        {
                            OFFSET 24.531507 0.000000 0.000000
                            CHANNELS 3 Zrotation Xrotation Yrotation
                            End Site
                            {
                                OFFSET 14.294524 0.000000 0.000000
                            }
                        }
                    }
                }
            }
            JOINT RightShoulder
            {
                OFFSET -3.770332 21.491646 -0.175476
                CHANNELS 3 Zrotation Xrotation Yrotation
                JOINT RightArm
                {
                    OFFSET -10.823906 0.000000 0.000000
                    CHANNELS 3 Zrotation Xrotation Yrotation
                    JOINT RightForeArm
                    {
                        OFFSET -28.535641 0.000000 0.000000
                        CHANNELS 3 Zrotation Xrotation Yrotation
                        JOINT RightHand
                        {
                            OFFSET -24.531507 0.000000 0.000000
                            CHANNELS 3 Zrotation Xrotation Yrotation
                            End Site
                            {
                                OFFSET -14.294524 0.000000 0.000000
                            }
                        }
                    }
                }
            }
        }
    }
    JOINT LeftUpLeg
    {
        OFFSET 9.529683 0.000000 0.000000
        CHANNELS 3 Zrotation Xrotation Yrotation
        JOINT LeftLeg
        {
            OFFSET -0.000000 -40.188419 0.000000
            CHANNELS 3 Zrotation Xrotation Yrotation
            JOINT LeftFoot
            {
                OFFSET -0.000000 -39.995377 0.000000
                CHANNELS 3 Zrotation Xrotation Yrotation
                JOINT LeftToeBase
                {
                    OFFSET -0.000000 -6.194294 14.294524
                    CHANNELS 3 Zrotation Xrotation Yrotation
                    End Site
                    {
                        OFFSET -0.000000 0.000000 3.811873
                    }
                }
            }
        }
    }
    JOINT RightUpLeg
    {
        OFFSET -9.529683 0.000000 0.000000
        CHANNELS 3 Zrotation Xrotation Yrotation
        JOINT RightLeg
        {
            OFFSET -0.000000 -40.188419 0.000000
            CHANNELS 3 Zrotation Xrotation Yrotation
            JOINT RightFoot
            {
                OFFSET -0.000000 -39.995377 0.000000
                CHANNELS 3 Zrotation Xrotation Yrotation
                JOINT RightToeBase
                {
                    OFFSET -0.000000 -6.194294 14.294524
                    CHANNELS 3 Zrotation Xrotation Yrotation
                    End Site
                    {
                        OFFSET -0.000000 0.000000 3.811873
                    }
                }
            }
        }
    }
}
MOTION
Frames:    7
Frame Time:    0.004000
1.334323    124.148270    -67.320091    0.595511    -2.926155    -2.812140    0.076044    -0.409830    0.302719    -4.388131    0.638186    0.326858    4.923990    20.012394    0.824761    -4.704594    10.906391    0.809341    -12.018723    24.042952    14.937514    -46.917671    33.551250    -15.958820    0.061446    -12.393159    -19.915966    7.446867    -12.475711    -1.460231    15.754866    28.440645    -1.304052    36.499081    32.283623    31.420700    -3.936179    -11.429740    22.290531    -0.240189    -10.675200    3.234644    -3.260274    -2.712031    1.427389    0.279479    15.414383    -3.071606    7.734708    -18.907959    7.476700    0.000000    0.000000    0.000000    0.179802    -1.199208    -3.084004    -0.852421    18.895159    -8.867337    17.698236    -16.552500    20.386204    0.000000    0.000000    0.000000    
1.363135    124.121567    -67.115273    0.576914    -3.077331    -2.683359    0.053322    -0.326264    0.216175    -4.393511    0.723703    0.244010    4.931581    20.053841    0.828392    -4.683705    10.785789    0.811411    -11.981110    24.001619    14.904971    -46.856838    33.438362    -15.957309    0.026825    -12.409715    -20.074360    7.495346    -12.500773    -1.491813    15.737593    28.432524    -1.286856    36.537373    32.208305    31.350348    -3.863098    -11.344903    22.326044    -0.100519    -10.599288    3.312884    -3.266037    -2.487233    1.502143    0.310312    15.541171    -3.340550    8.204796    -18.872568    7.520171    0.000000    0.000000    0.000000    0.171162    -1.598118    -3.046022    -0.880052    20.229836    -8.737556    17.128611    -16.700510    20.242289    0.000000    0.000000    0.000000    
1.411471    124.067780    -66.943130    0.674661    -3.202311    -2.636160    -0.050311    -0.198724    0.160017    -4.467970    0.724099    0.188413    5.021185    20.074711    0.847182    -4.753058    10.721393    0.829090    -11.909098    23.920294    14.880572    -46.832771    33.405170    -15.881292    0.060819    -12.446976    -20.275764    7.498245    -12.537183    -1.571101    15.764355    28.466455    -1.247719    36.511639    32.195347    31.310884    -3.868822    -11.324375    22.342272    0.050482    -10.572726    3.350547    -3.407508    -2.313707    1.547800    0.333835    15.654401    -3.460167    8.281606    -19.041061    7.567167    0.000000    0.000000    0.000000    0.000566    -2.127230    -3.057641    -0.888924    21.690720    -8.622104    16.735367    -16.805723    20.291069    0.000000    0.000000    0.000000    
1.465216    124.014023    -66.771957    0.770759    -3.328615    -2.613084    -0.125552    -0.072167    0.133731    -4.588803    0.742318    0.163484    5.148650    20.066980    0.832897    -4.826668    10.683790    0.813134    -11.828965    23.904491    14.831827    -46.752251    33.320938    -15.894422    0.081566    -12.461272    -20.445335    7.485994    -12.551908    -1.639093    15.862504    28.490440    -1.263689    36.422108    32.222031    31.286480    -3.878992    -11.274316    22.369595    0.126440    -10.517398    3.393362    -3.553348    -2.133130    1.579441    0.346275    15.784753    -3.603104    8.360389    -19.211079    7.701865    0.000000    0.000000    0.000000    -0.170323    -2.677458    -3.062032    -0.913965    23.171501    -8.647417    16.158268    -16.962721    20.349707    0.000000    0.000000    0.000000    
1.516418    123.961494    -66.606674    0.862273    -3.439141    -2.590403    -0.210936    0.040921    0.092343    -4.667759    0.763568    0.123699    5.172862    19.981415    0.853365    -4.802398    10.806209    0.837487    -11.766949    23.830627    14.800518    -46.694733    33.251759    -15.863112    0.095276    -12.460085    -20.614265    7.457592    -12.555271    -1.756833    15.897711    28.475679    -1.237154    36.402782    32.221272    31.221123    -3.873808    -11.204284    22.390934    0.085773    -10.448566    3.521777    -3.692007    -1.981946    1.628644    0.383763    15.902397    -3.778227    8.110145    -19.541513    7.829634    0.000000    0.000000    0.000000    -0.353471    -3.305429    -3.313727    -1.041002    24.752707    -8.207233    15.869676    -17.085970    20.317455    0.000000    0.000000    0.000000    
1.581820    123.897316    -66.425560    1.004979    -3.627997    -2.571752    -0.430034    0.224629    0.055038    -4.550399    0.783054    0.085693    5.101657    20.013048    0.882420    -4.845281    10.723581    0.861137    -11.852110    23.799219    14.761198    -46.601627    33.194801    -15.846705    0.101970    -12.538785    -20.828037    7.513437    -12.632565    -1.743916    15.778497    28.523064    -1.232618    36.364300    32.208656    31.241045    -3.882805    -11.178629    22.410393    0.160101    -10.418135    3.534778    -3.909060    -1.728738    1.619537    0.310072    16.077581    -3.612127    8.406698    -19.752403    8.026768    0.000000    0.000000    0.000000    -0.593685    -3.865651    -3.474408    -1.132469    26.390705    -7.609351    15.559985    -17.321011    19.929649    0.000000    0.000000    0.000000    
1.609762    123.845146    -66.291870    1.057756    -3.644900    -2.513503    -0.528826    0.304989    0.001430    -4.550111    0.737742    0.034876    5.153496    20.026407    0.897832    -4.900656    10.656988    0.874134    -11.850706    23.800455    14.734133    -46.475189    33.022331    -15.888911    0.048434    -12.495166    -21.015417    7.700970    -12.606535    -1.823697    15.802753    28.543865    -1.233315    36.360550    32.139126    31.178392    -3.847369    -11.066616    22.453049    0.028624    -10.315298    3.539670    -3.976140    -1.735390    1.644869    0.298829    16.295839    -3.726455    8.404448    -19.999039    8.168389    0.000000    0.000000    0.000000    -0.697417    -4.632460    -3.589899    -1.236278    28.002050    -7.406008    15.302280    -17.229242    19.842085    0.000000    0.000000    0.000000    
